# xmcd
#
# Track frame offsets: 
#        150
#        52267
#        65520
#        78653
#        92367
#        105247
#        118067
#        131225
#        144312
#        156380
#        168593
#        181146
#        194915
#
# Disc length: 3025 seconds
#
# Revision: 0
# Processed by: cddbd v1.5.2PL0 Copyright (c) Steve Scherf et al.
# Submitted via: ExactAudioCopy v1.0b1
#
DISCID=bd0bcf0d
DTITLE=John Lee Hooker - RTL Jazz Collection
DYEAR=2004
DGENRE=Blues
TTITLE0=Boogie Chillen
TTITLE1=Come Back Baby
TTITLE2=Slow Down Your Chatter Baby
TTITLE3=I'm Going Away
TTITLE4=Louisiana Blues For You
TTITLE5=Long, Long Way From Home
TTITLE6=Tb's Killin' Me
TTITLE7=How Long
TTITLE8=Me And A Woman
TTITLE9=Throw My Money Away
TTITLE10=The Story Of A Married Woman
TTITLE11=Snap Them Fingers Boogie
TTITLE12=Whiskey and Women
EXTD=
EXTT0=
EXTT1=
EXTT2=
EXTT3=
EXTT4=
EXTT5=
EXTT6=
EXTT7=
EXTT8=
EXTT9=
EXTT10=
EXTT11=
EXTT12=
PLAYORDER=
